<svg width="17" height="10" viewBox="0 0 17 10" fill="none" xmlns="http://www.w3.org/2000/svg">
<path fill-rule="evenodd" clip-rule="evenodd" d="M8.54678 9.26298H9.48863C9.48863 9.26298 9.77313 9.23174 9.91838 9.07516C10.0521 8.93141 10.0478 8.66146 10.0478 8.66146C10.0478 8.66146 10.0294 7.39767 10.6159 7.21157C11.1941 7.02824 11.9366 8.433 12.7236 8.97313C13.3187 9.38191 13.7709 9.29228 13.7709 9.29228L15.8752 9.26298C15.8752 9.26298 16.976 9.19516 16.454 8.32968C16.4112 8.25888 16.15 7.68944 14.8895 6.51935C13.5701 5.29471 13.7467 5.49279 15.3361 3.37442C16.3041 2.08432 16.691 1.2967 16.5702 0.959364C16.4549 0.63807 15.743 0.722992 15.743 0.722992L13.3737 0.737752C13.3737 0.737752 13.1981 0.713794 13.0678 0.791658C12.9405 0.868024 12.8586 1.046 12.8586 1.046C12.8586 1.046 12.4836 2.04432 11.9835 2.89334C10.9285 4.68484 10.5066 4.77939 10.3342 4.66816C9.93314 4.4089 10.0332 3.62663 10.0332 3.07088C10.0332 1.33478 10.2966 0.610903 9.5205 0.423517C9.26295 0.361269 9.07343 0.320198 8.41479 0.313567C7.56942 0.304796 6.85388 0.316133 6.44873 0.514643C6.17921 0.646626 5.97128 0.940754 6.09792 0.957653C6.2545 0.978616 6.60917 1.05327 6.7972 1.30932C7.03998 1.6396 7.03143 2.38145 7.03143 2.38145C7.03143 2.38145 7.1709 4.42516 6.70564 4.67907C6.38627 4.85319 5.94818 4.49767 5.00761 2.87237C4.52567 2.03983 4.16181 1.11958 4.16181 1.11958C4.16181 1.11958 4.09164 0.947599 3.96651 0.855617C3.81463 0.744169 3.60243 0.708661 3.60243 0.708661L1.35101 0.72342C1.35101 0.72342 1.01303 0.732833 0.888963 0.87979C0.778585 1.01049 0.880193 1.28087 0.880193 1.28087C0.880193 1.28087 2.64282 5.40466 4.63862 7.4828C6.46863 9.38811 8.54678 9.26298 8.54678 9.26298Z" fill="#444444"/>
</svg>
